<svg xmlns="http://www.w3.org/2000/svg" viewBox="0 0 64 64" width="64" height="64">
  <defs>
    <radialGradient id="fvg" cx="50%" cy="58%" r="60%">
      <stop offset="0" stop-color="#2b0b14"/>
      <stop offset="1" stop-color="#0b0408"/>
    </radialGradient>
    <linearGradient id="fvt" x1="0" y1="1" x2="0" y2="0">
      <stop offset="0" stop-color="#7d0f1c"/>
      <stop offset=".6" stop-color="#e0332c"/>
      <stop offset="1" stop-color="#ff9a5a"/>
    </linearGradient>
  </defs>
  <rect width="64" height="64" rx="12" fill="url(#fvg)"/>
  <g transform="translate(32 46)">
    <g fill="url(#fvt)" opacity=".85">
      <path d="M0 0 C 7 -5 11 -17 3 -32 C 1 -36 -1 -36 -3 -32 C -11 -17 -7 -5 0 0 Z" transform="rotate(-58)"/>
      <path d="M0 0 C 7 -5 11 -17 3 -32 C 1 -36 -1 -36 -3 -32 C -11 -17 -7 -5 0 0 Z" transform="rotate(58)"/>
      <path d="M0 0 C 8 -6 12 -19 3 -35 C 1 -39 -1 -39 -3 -35 C -12 -19 -8 -6 0 0 Z" transform="rotate(-30)"/>
      <path d="M0 0 C 8 -6 12 -19 3 -35 C 1 -39 -1 -39 -3 -35 C -12 -19 -8 -6 0 0 Z" transform="rotate(30)"/>
      <path d="M0 0 C 9 -7 13 -21 3 -38 C 1 -42 -1 -42 -3 -38 C -13 -21 -9 -7 0 0 Z"/>
    </g>
    <circle r="4" fill="#ffd08a"/>
    <circle r="7.5" fill="#ff8a3d" opacity=".35"/>
  </g>
</svg>
