<svg xmlns="http://www.w3.org/2000/svg" viewBox="0 0 1280 720" width="1280" height="720" role="img" aria-label="游戏截图：角色境界与蛊虫面板界面">
  <defs>
    <linearGradient id="s5bg" x1="0" y1="0" x2="1" y2="1">
      <stop offset="0" stop-color="#101a24"/>
      <stop offset="1" stop-color="#070c12"/>
    </linearGradient>
    <linearGradient id="s5panel" x1="0" y1="0" x2="0" y2="1">
      <stop offset="0" stop-color="#16232f"/>
      <stop offset="1" stop-color="#0d151d"/>
    </linearGradient>
    <radialGradient id="s5ring" cx=".5" cy=".5" r=".5">
      <stop offset=".6" stop-color="#ff7a45" stop-opacity="0"/>
      <stop offset="1" stop-color="#ff7a45" stop-opacity=".45"/>
    </radialGradient>
    <linearGradient id="s5bar1" x1="0" y1="0" x2="1" y2="0">
      <stop offset="0" stop-color="#ff5f3a"/>
      <stop offset="1" stop-color="#ffc46f"/>
    </linearGradient>
    <linearGradient id="s5bar2" x1="0" y1="0" x2="1" y2="0">
      <stop offset="0" stop-color="#4fa8e0"/>
      <stop offset="1" stop-color="#9fe9ff"/>
    </linearGradient>
    <linearGradient id="s5bar3" x1="0" y1="0" x2="1" y2="0">
      <stop offset="0" stop-color="#6a8f3a"/>
      <stop offset="1" stop-color="#c8e07a"/>
    </linearGradient>
  </defs>

  <rect width="1280" height="720" fill="url(#s5bg)"/>
  <g stroke="#2f4a63" stroke-opacity=".25">
    <path d="M0 90 H 1280 M0 180 H 1280 M0 270 H 1280 M0 360 H 1280 M0 450 H 1280 M0 540 H 1280 M0 630 H 1280"/>
    <path d="M160 0 V 720 M320 0 V 720 M480 0 V 720 M640 0 V 720 M800 0 V 720 M960 0 V 720 M1120 0 V 720"/>
  </g>

  <!-- 顶部条 -->
  <rect x="0" y="0" width="1280" height="72" fill="#0a1119" stroke="#2f4a63" stroke-opacity=".5"/>
  <g font-family="PingFang SC, Microsoft YaHei, Arial, sans-serif" fill="#c6d4df" font-size="18">
    <text x="40" y="45">角色</text>
    <text x="140" y="45" fill="#6fa8c8">蛊虫</text>
    <text x="240" y="45" fill="#6fa8c8">传承</text>
    <text x="340" y="45" fill="#6fa8c8">气运</text>
    <text x="440" y="45" fill="#6fa8c8">功德</text>
  </g>
  <text x="1240" y="45" text-anchor="end" font-family="Segoe UI, Arial, sans-serif" font-size="15" fill="#6fa8c8">ESC 返回</text>

  <!-- 左侧角色卡 -->
  <rect x="40" y="100" width="420" height="580" rx="10" fill="url(#s5panel)" stroke="#2f4a63" stroke-opacity=".55"/>
  <g transform="translate(250 260)">
    <circle r="150" fill="url(#s5ring)"/>
    <circle r="132" fill="none" stroke="#2f4a63" stroke-width="2"/>
    <circle r="112" fill="#0b1219" stroke="#ff7a45" stroke-opacity=".6" stroke-width="2"/>
    <circle r="96" fill="none" stroke="#ff8a5a" stroke-opacity=".35" stroke-width="10" stroke-dasharray="18 12"/>
    <g transform="translate(0 34) scale(1.5)">
      <g fill="#ff7a45">
        <path d="M0 0 C 8 -6 12 -18 3 -32 C 1 -36 -1 -36 -3 -32 C -12 -18 -8 -6 0 0 Z" transform="rotate(-62)"/>
        <path d="M0 0 C 8 -6 12 -18 3 -32 C 1 -36 -1 -36 -3 -32 C -12 -18 -8 -6 0 0 Z" transform="rotate(62)"/>
        <path d="M0 0 C 9 -7 13 -20 3 -36 C 1 -40 -1 -40 -3 -36 C -13 -20 -9 -7 0 0 Z" transform="rotate(-28)"/>
        <path d="M0 0 C 9 -7 13 -20 3 -36 C 1 -40 -1 -40 -3 -36 C -13 -20 -9 -7 0 0 Z" transform="rotate(28)"/>
        <path d="M0 0 C 10 -8 14 -22 3.4 -40 C 1.2 -44 -1.2 -44 -3.4 -40 C -14 -22 -10 -8 0 0 Z"/>
      </g>
      <circle r="4.6" fill="#fff0cf"/>
    </g>
    <text y="168" text-anchor="middle" font-family="PingFang SC, Microsoft YaHei, Arial, sans-serif" font-size="30" fill="#ffd9c0">红莲魔尊</text>
    <text y="200" text-anchor="middle" font-family="Segoe UI, Arial, sans-serif" font-size="15" fill="#c9a08d">第九转 · 魔道尊者 · 中州</text>
  </g>

  <!-- 属性条 -->
  <g font-family="PingFang SC, Microsoft YaHei, Arial, sans-serif" font-size="15" fill="#c6d4df">
    <text x="80" y="470">魔道修为</text>
    <text x="80" y="512">肉身强度</text>
    <text x="80" y="554">神魂之力</text>
    <text x="80" y="596">气运加持</text>
    <text x="80" y="638">功德残余</text>
  </g>
  <g>
    <rect x="200" y="456" width="220" height="14" rx="7" fill="#16303f"/>
    <rect x="200" y="456" width="204" height="14" rx="7" fill="url(#s5bar1)"/>
    <rect x="200" y="498" width="220" height="14" rx="7" fill="#16303f"/>
    <rect x="200" y="498" width="176" height="14" rx="7" fill="url(#s5bar2)"/>
    <rect x="200" y="540" width="220" height="14" rx="7" fill="#16303f"/>
    <rect x="200" y="540" width="150" height="14" rx="7" fill="url(#s5bar3)"/>
    <rect x="200" y="582" width="220" height="14" rx="7" fill="#16303f"/>
    <rect x="200" y="582" width="196" height="14" rx="7" fill="url(#s5bar1)"/>
    <rect x="200" y="624" width="220" height="14" rx="7" fill="#16303f"/>
    <rect x="200" y="624" width="62" height="14" rx="7" fill="#8f98a0"/>
  </g>

  <!-- 右侧蛊虫栏 -->
  <rect x="492" y="100" width="748" height="580" rx="10" fill="url(#s5panel)" stroke="#2f4a63" stroke-opacity=".55"/>
  <text x="528" y="142" font-family="PingFang SC, Microsoft YaHei, Arial, sans-serif" font-size="20" fill="#c6d4df">本命蛊</text>
  <g>
    <rect x="528" y="166" width="212" height="256" rx="8" fill="#0b151d" stroke="#ff7a45" stroke-opacity=".6"/>
    <g transform="translate(634 268) scale(2.1)">
      <ellipse rx="26" ry="15" fill="#2a0c10" stroke="#ff8a5a" stroke-opacity=".8"/>
      <ellipse cx="-6" cy="-1" rx="10" ry="7" fill="#ffd0b0" opacity=".9"/>
      <path d="M22 -6 L 40 -16 M 22 4 L 40 12" stroke="#ff8a5a" stroke-opacity=".8" stroke-width="2"/>
    </g>
    <text x="548" y="392" font-family="PingFang SC, Microsoft YaHei, Arial, sans-serif" font-size="18" fill="#ffd9c0">红莲蛊</text>
    <text x="548" y="414" font-family="Segoe UI, Arial, sans-serif" font-size="13" fill="#c9a08d">九转 · 本命</text>
  </g>

  <g font-family="PingFang SC, Microsoft YaHei, Arial, sans-serif" font-size="20" fill="#c6d4df">
    <text x="772" y="142">蛊虫图鉴 · 已收录 42 / 108</text>
  </g>
  <g>
    <g fill="#0b151d" stroke="#2f4a63" stroke-opacity=".8">
      <rect x="772" y="166" width="106" height="106" rx="8"/>
      <rect x="890" y="166" width="106" height="106" rx="8"/>
      <rect x="1008" y="166" width="106" height="106" rx="8"/>
      <rect x="1126" y="166" width="90" height="106" rx="8"/>
      <rect x="772" y="288" width="106" height="106" rx="8"/>
      <rect x="890" y="288" width="106" height="106" rx="8"/>
      <rect x="1008" y="288" width="106" height="106" rx="8"/>
      <rect x="1126" y="288" width="90" height="106" rx="8"/>
    </g>
    <g transform="translate(825 219)">
      <ellipse rx="22" ry="13" fill="#102434" stroke="#7fd8ff" stroke-opacity=".8"/>
      <ellipse cx="-5" cy="-1" rx="8" ry="6" fill="#d6f2ff" opacity=".9"/>
    </g>
    <g transform="translate(943 219)">
      <path d="M0 -18 C 10 -6 10 6 0 18 C -10 6 -10 -6 0 -18 Z" fill="#2a1a10" stroke="#ffc46f" stroke-opacity=".8"/>
    </g>
    <g transform="translate(1061 219)">
      <circle r="15" fill="none" stroke="#e0a6ff" stroke-opacity=".85" stroke-width="3"/>
      <circle r="4" fill="#f0d6ff"/>
    </g>
    <g transform="translate(1171 219)">
      <path d="M-14 10 L 0 -14 L 14 10 Z" fill="#12202c" stroke="#9fe9ff" stroke-opacity=".75"/>
    </g>
    <g transform="translate(825 341)">
      <rect x="-16" y="-12" width="32" height="24" rx="6" fill="#241016" stroke="#ff8a9a" stroke-opacity=".8"/>
      <circle r="5" fill="#ffd0d6"/>
    </g>
    <g transform="translate(943 341)">
      <path d="M-16 -8 C 0 -22 0 22 16 8" fill="none" stroke="#a8e07a" stroke-opacity=".85" stroke-width="4"/>
    </g>
    <g transform="translate(1061 341)">
      <path d="M0 -18 L 6 0 L 18 6 L 6 12 L 0 30 L -6 12 L -18 6 L -6 0 Z" fill="#2a2410" stroke="#ffe6a8" stroke-opacity=".85"/>
    </g>
    <g transform="translate(1171 341)">
      <path d="M-14 12 C -6 -6 6 -6 14 12 Z" fill="#0f2a24" stroke="#7fd6b0" stroke-opacity=".8"/>
    </g>
  </g>

  <!-- 描述框 -->
  <rect x="528" y="446" width="688" height="212" rx="8" fill="#0b151d" stroke="#2f4a63" stroke-opacity=".7"/>
  <text x="552" y="484" font-family="PingFang SC, Microsoft YaHei, Arial, sans-serif" font-size="18" fill="#9fe9ff">红莲蛊 · 说明</text>
  <g font-family="PingFang SC, Microsoft YaHei, Arial, sans-serif" font-size="15" fill="#a8bccb">
    <text x="552" y="518">九转本命蛊，火道与魔道交汇之物。</text>
    <text x="552" y="546">以自身道痕为薪，燃尽一域气运，可焚烧对手道果。</text>
    <text x="552" y="574">代价：每次动用，燃损一层功德，永久不可恢复。</text>
    <text x="552" y="602">共鸣蛊虫：血海蛊、狂魔蛊、大衍蛊。</text>
  </g>
  <rect x="552" y="620" width="180" height="34" rx="6" fill="#1b2b3a" stroke="#4fa8e0" stroke-opacity=".6"/>
  <text x="642" y="643" text-anchor="middle" font-family="PingFang SC, Microsoft YaHei, Arial, sans-serif" font-size="15" fill="#9fe9ff">启用 本命蛊</text>
  <rect x="752" y="620" width="180" height="34" rx="6" fill="#1b2b3a" stroke="#6a8f3a" stroke-opacity=".6"/>
  <text x="842" y="643" text-anchor="middle" font-family="PingFang SC, Microsoft YaHei, Arial, sans-serif" font-size="15" fill="#c8e07a">炼化 新蛊</text>
</svg>
